<svg width="68" height="68" viewBox="0 0 68 68" fill="none" xmlns="http://www.w3.org/2000/svg">
<path d="M21.25 29.75C23.6003 29.75 25.5 27.8503 25.5 25.5C25.5 23.1497 23.6003 21.25 21.25 21.25C18.8997 21.25 17 23.1497 17 25.5C17 27.8503 18.8997 29.75 21.25 29.75ZM34 42.5C30.8678 42.5 28.118 40.7873 26.6432 38.25H17.5312C19.4182 45.5812 26.0695 51 34 51C41.9178 51 48.5817 45.5812 50.4688 38.25H41.3568C39.882 40.7873 37.1365 42.5 34 42.5ZM34 0C15.2192 0 0 15.2192 0 34C0 52.7808 15.2192 68 34 68C52.7808 68 68 52.7808 68 34C68 15.2192 52.7808 0 34 0ZM52.037 52.037C47.2133 56.8438 40.8128 59.5 34 59.5C27.1873 59.5 20.7868 56.8438 15.963 52.037C11.1562 47.2133 8.5 40.8128 8.5 34C8.5 27.1873 11.1562 20.7868 15.963 15.963C20.7868 11.1562 27.1873 8.5 34 8.5C40.8128 8.5 47.2133 11.1562 52.037 15.963C56.8438 20.7868 59.5 27.1873 59.5 34C59.5 40.8128 56.8438 47.2133 52.037 52.037ZM46.75 21.25C44.3997 21.25 42.5 23.1497 42.5 25.5C42.5 27.8503 44.3997 29.75 46.75 29.75C49.1003 29.75 51 27.8503 51 25.5C51 23.1497 49.1003 21.25 46.75 21.25Z" fill="white" fill-opacity="0.35"/>
</svg>
