<svg width="68" height="71" viewBox="0 0 68 71" fill="none" xmlns="http://www.w3.org/2000/svg">
<path d="M48.5714 8.875C48.5714 6.2125 46.6286 4.4375 43.7143 4.4375H40.8C39.8286 1.775 37.4 0 34 0C30.6 0 28.1714 1.775 27.2 4.4375H24.2857C21.3714 4.4375 19.4286 6.2125 19.4286 8.875V17.75H48.5714V8.875ZM58.2857 8.875H53.4286V17.75H58.2857V62.125H9.71429V17.75H14.5714V8.875H9.71429C4.37143 8.875 0 12.8687 0 17.75V62.125C0 67.0062 4.37143 71 9.71429 71H58.2857C63.6286 71 68 67.0062 68 62.125V17.75C68 12.8687 63.6286 8.875 58.2857 8.875ZM29.1429 43.0438L20.4 35.5L13.6 41.7125L29.1429 55.9125L54.4 30.6187L47.1143 24.85L29.1429 43.0438Z" fill="white" fill-opacity="0.35"/>
</svg>
